mtllib overhang3.mtl
o overhang3.obj
v 0.442052 0.251325 -0.306431
v 0.141764 0.271234 -0.310022
v -0.152687 0.277175 -0.290391
v -0.454842 0.256365 -0.293250
v 0.447209 0.290460 -0.184118
v 0.146789 0.257028 -0.166667
v -0.148440 0.254619 -0.148005
v -0.442203 0.254966 -0.142889
v 0.447272 0.290167 -0.096355
v 0.145278 0.283135 -0.082816
v -0.147814 0.250836 -0.060052
v -0.444129 0.251569 -0.054427
v -0.451316 -0.038272 0.159009
v -0.102179 -0.051425 -0.009413
v 0.156038 -0.051798 -0.037629
v 0.442281 -0.076450 0.083763
v -0.451048 0.062195 0.158208
v -0.095788 0.053781 -0.013805
v 0.142049 0.037948 -0.012370
v 0.441218 0.028559 0.085049
v -0.442225 0.122025 0.193820
v -0.127926 0.104672 0.105084
v 0.140127 0.098684 0.097318
v 0.442841 0.119347 0.134622
v -0.441985 0.198843 0.197602
v -0.136604 0.178182 0.132887
v 0.138535 0.183902 0.097264
v 0.446110 0.184584 0.131767
v 0.453285 0.261574 0.012372
v 0.144075 0.261157 0.001191
v -0.142984 0.240343 0.046548
v -0.440832 0.242527 0.084544
v -0.422811 -0.254169 0.759155
v -0.127881 -0.254169 0.748546
v 0.119597 -0.254169 0.730444
v 0.414526 -0.254169 0.741054
v -0.453953 -0.157002 0.290936
v -0.176215 -0.118841 0.241180
v 0.159904 -0.124020 0.185873
v 0.453255 -0.157002 0.251792
v -0.443987 -0.186170 0.561099
v -0.149058 -0.186170 0.541624
v 0.142075 -0.175450 0.522099
v 0.439481 -0.186304 0.543021
v -0.448939 0.243585 -0.355845
v -0.149768 0.249963 -0.353910
v 0.141764 0.259526 -0.374787
v 0.442045 0.239584 -0.371177
v 0.589509 0.251292 -0.288311
v 0.444603 0.263996 -0.234968
v 0.291246 0.263719 -0.317712
v 0.145873 0.255922 -0.228931
v -0.001289 0.256286 -0.293238
v -0.152686 0.277173 -0.212071
v -0.298799 0.233397 -0.286438
v -0.448818 0.249158 -0.210510
v -0.590207 0.251292 -0.288311
v 0.594089 0.273257 -0.159794
v 0.446437 0.295219 -0.135815
v 0.289399 0.284144 -0.179974
v 0.145755 0.275214 -0.120270
v -0.001241 0.266783 -0.154512
v -0.147814 0.251285 -0.098715
v -0.294733 0.222391 -0.129647
v -0.443056 0.255010 -0.092759
v -0.590207 0.251292 -0.147738
v 0.595758 0.281262 -0.076536
v 0.450083 0.276659 -0.051042
v 0.292424 0.266634 -0.085672
v 0.145535 0.279503 -0.047049
v -0.002240 0.274537 -0.068649
v -0.147696 0.249577 -0.016733
v -0.301232 0.231524 -0.039806
v -0.444054 0.253835 -0.003958
v -0.590207 0.251292 -0.060087
v -0.284512 -0.038671 0.106563
v -0.450780 0.012641 0.147023
v -0.590207 -0.076547 0.166621
v -0.451084 -0.100487 0.201338
v 0.006765 -0.068442 0.013452
v -0.093766 -0.001999 -0.030008
v -0.145159 -0.071511 0.086543
v 0.326374 -0.055039 -0.024411
v 0.148240 -0.008502 -0.036963
v 0.162440 -0.092743 0.021617
v 0.589509 -0.076547 0.166621
v 0.440849 -0.028123 0.073875
v 0.444847 -0.120078 0.137559
v -0.268792 0.047733 0.099077
v -0.443827 0.090686 0.171125
v -0.590207 0.029548 0.166621
v 0.014338 0.039914 0.005988
v -0.113218 0.094071 0.042871
v 0.320298 0.043349 -0.013389
v 0.142019 0.069986 0.048687
v 0.589509 0.029548 0.166621
v 0.442426 0.080733 0.108537
v -0.268640 0.106635 0.163430
v -0.442434 0.158479 0.207782
v -0.590207 0.123217 0.215867
v 0.010152 0.140599 0.077217
v -0.135356 0.137127 0.134023
v 0.302246 0.104589 0.084371
v 0.139848 0.134923 0.111705
v 0.589509 0.123217 0.215867
v 0.443347 0.153922 0.146743
v -0.273870 0.154965 0.187445
v -0.440606 0.224945 0.159894
v -0.590207 0.204458 0.207200
v 0.009874 0.221287 0.089071
v -0.136534 0.211817 0.105028
v 0.296105 0.173444 0.084264
v 0.135787 0.226893 0.065541
v 0.589509 0.204458 0.207200
v 0.447629 0.223489 0.086276
v 0.591439 0.248997 0.073003
v 0.285623 0.233947 0.002848
v 0.008006 0.282206 0.019352
v -0.286734 0.201798 0.087733
v -0.590207 0.251292 0.072810
v -0.265380 -0.254169 0.756503
v -0.002245 -0.254169 0.738716
v 0.253302 -0.254169 0.729351
v -0.457067 -0.181105 0.420279
v -0.162138 -0.181105 0.388359
v 0.152652 -0.149795 0.362071
v 0.454329 -0.190967 0.398609
v -0.590207 -0.157002 0.302075
v -0.311691 -0.156220 0.272110
v -0.056445 -0.110264 0.237010
v 0.311604 -0.156625 0.213368
v 0.589509 -0.157002 0.302075
v -0.428105 -0.200943 0.683892
v -0.590207 -0.254169 0.759155
v -0.425544 -0.302912 0.748264
v -0.133175 -0.200943 0.671066
v -0.130615 -0.302912 0.735438
v 0.125840 -0.200943 0.652965
v 0.123280 -0.302912 0.717337
v 0.420769 -0.200943 0.665791
v 0.418209 -0.302912 0.730163
v 0.589509 -0.254169 0.759155
v -0.590207 -0.186170 0.561099
v -0.297145 -0.186170 0.556230
v -0.004066 -0.177059 0.526678
v 0.290373 -0.189107 0.529587
v 0.589509 -0.186170 0.561099
v -0.590207 0.239584 -0.353076
v -0.305707 0.242790 -0.357133
v -0.000374 0.239715 -0.357612
v 0.291986 0.249252 -0.381978
v 0.589509 0.239584 -0.353076
v 0.590799 0.257480 -0.213388
v 0.293490 0.256967 -0.238049
v -0.001031 0.255037 -0.214829
v -0.298179 0.240576 -0.204103
v -0.590207 0.251292 -0.209991
v 0.595693 0.280950 -0.114993
v 0.291017 0.268803 -0.126106
v -0.002276 0.281672 -0.107855
v -0.301015 0.231050 -0.081637
v -0.590207 0.251292 -0.098715
v 0.594349 0.272177 -0.021825
v 0.293528 0.269266 -0.049859
v -0.000864 0.278585 -0.030604
v -0.297963 0.198880 0.016488
v -0.590207 0.251292 -0.010148
v -0.590207 -0.120078 0.211979
v -0.293159 -0.085699 0.162326
v -0.035604 -0.084547 0.090512
v 0.320991 -0.104206 0.050474
v 0.589509 -0.120078 0.211979
v -0.590207 -0.026606 0.155126
v -0.275476 -0.000687 0.087410
v 0.014393 -0.015680 -0.008189
v 0.325722 -0.005250 -0.036762
v 0.589509 -0.026606 0.155126
v -0.590207 0.082596 0.190427
v -0.267585 0.083842 0.130989
v 0.012166 0.098722 0.043830
v 0.306037 0.075040 0.044782
v 0.589509 0.082596 0.190427
v -0.590207 0.160731 0.226829
v -0.271946 0.124955 0.186525
v 0.009628 0.177355 0.094945
v 0.297477 0.120365 0.105100
v 0.589509 0.160731 0.226829
v -0.590207 0.239584 0.156141
v -0.275793 0.194550 0.156821
v 0.009538 0.258181 0.063707
v 0.294649 0.208300 0.049140
v 0.589597 0.239219 0.156268
v -0.590207 -0.181105 0.423064
v -0.316765 -0.181105 0.410907
v -0.001911 -0.177137 0.367706
v 0.312013 -0.199687 0.379097
v 0.589509 -0.181105 0.423064
v -0.590207 -0.200943 0.683893
v -0.273321 -0.200943 0.680686
v -0.590207 -0.302912 0.748264
v -0.269481 -0.302912 0.745058
v -0.002008 -0.200943 0.660128
v -0.002008 -0.302912 0.724500
v 0.262666 -0.200943 0.653534
v 0.258826 -0.302912 0.717906
v 0.589509 -0.200943 0.683893
v 0.589509 -0.302912 0.748264
vn 0.061266 0.991669 -0.113310
vn -0.055017 0.997277 -0.049108
vn -0.012789 0.982574 -0.185433
vn 0.031237 0.999512 -0.000758
vn 0.053024 0.987481 -0.148560
vn -0.038352 0.958335 -0.283059
vn -0.189064 0.981959 0.003274
vn 0.087733 0.995519 0.035275
vn -0.071048 0.993743 0.086185
vn 0.035446 0.998554 -0.040409
vn -0.130689 0.974134 0.184346
vn 0.118145 0.992955 0.009034
vn 0.067806 0.486912 0.870815
vn 0.264311 0.633462 0.727232
vn 0.013326 0.607855 0.793936
vn -0.479682 0.498306 0.722216
vn 0.188030 -0.384563 0.903746
vn 0.133677 -0.483428 0.865117
vn -0.010122 -0.661209 0.750134
vn -0.481456 -0.329479 0.812185
vn 0.110574 -0.572225 0.812608
vn 0.234632 -0.742167 0.627803
vn -0.111280 -0.681926 0.722907
vn -0.311803 -0.490049 0.814022
vn 0.132708 0.538128 0.832350
vn 0.238495 0.321781 0.916284
vn 0.073158 0.445800 0.892138
vn -0.352011 0.586960 0.729086
vn -0.134328 0.925864 0.353174
vn 0.133132 0.873397 0.468459
vn -0.235827 0.954390 0.183097
vn 0.116833 0.987724 0.103691
vn 0.008932 0.360235 0.932819
vn 0.067321 0.352994 0.933200
vn 0.029910 0.337987 0.940675
vn -0.083514 0.353623 0.931652
vn 0.004516 0.928524 0.371246
vn -0.050739 0.964939 0.257525
vn 0.172241 0.949048 0.263894
vn -0.103778 0.950872 0.291673
vn 0.001093 0.997003 0.077351
vn -0.009347 0.997846 0.064926
vn -0.019924 0.993145 0.115174
vn -0.025169 0.998372 0.051177
vn 0.054873 0.997540 -0.043629
vn 0.047245 0.945476 -0.322247
vn -0.059769 0.978306 -0.198357
vn 0.049064 0.982816 -0.177950
vn 0.045963 0.983090 -0.177263
vn 0.069520 0.974026 -0.215502
vn 0.049191 0.998248 -0.032883
vn -0.080579 0.994781 -0.062596
vn 0.003471 0.994690 -0.102854
vn -0.115176 0.993201 0.016896
vn -0.033489 0.996880 -0.071478
vn 0.055919 0.996882 0.055670
vn -0.034753 0.994184 -0.101937
vn 0.133816 0.972077 -0.192768
vn -0.005252 0.997094 0.075995
vn -0.064260 0.964206 -0.257250
vn 0.051168 0.976587 -0.208949
vn -0.065683 0.991496 -0.112347
vn -0.179958 0.983576 0.013939
vn -0.023512 0.995258 0.094385
vn 0.063458 0.997782 0.020109
vn -0.005056 0.999039 -0.043547
vn 0.016470 0.989842 0.141212
vn -0.061342 0.982754 0.174447
vn -0.032855 0.998042 0.053222
vn 0.048425 0.969812 0.238996
vn -0.096701 0.994968 -0.026221
vn -0.202443 0.964069 0.172009
vn 0.085072 0.989019 0.120847
vn 0.149699 0.988731 0.001334
vn -0.015336 0.998899 0.044335
vn 0.358509 0.472366 0.805197
vn 0.176865 0.052313 0.982844
vn -0.087182 0.492166 0.866125
vn -0.005003 0.752665 0.658385
vn 0.041173 0.713195 0.699755
vn 0.200001 0.026845 0.979428
vn 0.141993 0.926571 0.348288
vn -0.309607 0.554643 0.772344
vn 0.073210 -0.117560 0.990364
vn 0.040286 0.947232 0.318006
vn -0.416569 0.486917 0.767712
vn -0.579191 -0.062282 0.812809
vn -0.221268 0.861636 0.456754
vn 0.367841 -0.472935 0.800641
vn 0.152487 -0.553722 0.818620
vn 0.124505 -0.321489 0.938692
vn -0.136973 -0.514473 0.846496
vn 0.117486 -0.804760 0.581858
vn -0.256214 -0.568938 0.781450
vn -0.115022 -0.820758 0.559577
vn -0.461506 -0.268395 0.845563
vn -0.351914 -0.526789 0.773725
vn 0.192501 -0.695899 0.691859
vn 0.113673 -0.140093 0.983592
vn 0.118199 -0.442870 0.888761
vn -0.062674 -0.659353 0.749217
vn 0.322997 -0.251803 0.912287
vn -0.052130 -0.723007 0.688871
vn -0.032239 -0.205624 0.978100
vn -0.443800 -0.381100 0.811051
vn -0.378086 0.052092 0.924304
vn 0.246553 0.382427 0.890484
vn 0.130810 0.885148 0.446545
vn 0.072771 0.636937 0.767474
vn 0.115108 0.345696 0.931259
vn -0.024400 0.814857 0.579148
vn -0.095122 0.545246 0.832861
vn 0.149181 0.771172 0.618901
vn -0.425376 0.608991 0.669466
vn -0.270957 0.809110 0.521462
vn -0.160999 0.929049 0.333087
vn 0.022320 0.890706 0.454031
vn -0.050459 0.945200 0.322570
vn -0.017303 0.993373 0.113629
vn 0.012243 0.990996 0.133333
vn 0.037658 0.360222 0.932106
vn 0.068445 0.340782 0.937648
vn -0.034722 0.346494 0.937409
vn 0.007555 0.993602 0.112686
vn -0.065748 0.986778 0.148144
vn 0.092463 0.982102 0.164094
vn -0.060018 0.991001 0.119642
vn -0.031750 0.928807 0.369202
vn -0.021161 0.951794 0.306008
vn 0.055511 0.956231 0.287299
vn 0.066465 0.963344 0.259907
vn -0.125350 0.945303 0.301147
vn 0.003130 0.933588 0.358334
vn 0.000002 0.359484 0.933151
vn 0.010020 -0.218584 0.975767
vn 0.026608 0.937033 0.348227
vn 0.068987 -0.247953 0.966313
vn 0.007774 0.922392 0.386177
vn 0.030515 -0.269706 0.962459
vn -0.037058 0.935820 0.350524
vn -0.086396 -0.229957 0.969358
vn -0.097463 0.355330 0.929646
vn 0.000376 0.996974 0.077729
vn 0.004951 0.997126 0.075603
vn -0.056771 0.992461 0.108623
vn 0.002746 0.998901 0.046798
vn -0.008912 0.997018 0.076652
vn -0.031694 0.978705 -0.202811
vn 0.054847 0.987999 -0.144396
vn -0.014521 0.976962 -0.212917
vn 0.056905 0.978435 -0.198562
vn 0.022075 0.983810 -0.177850
vn 0.114362 0.965777 -0.232800
vn -0.041880 0.985729 -0.163047
vn -0.013748 0.998732 -0.048436
vn -0.066185 0.987144 0.145488
vn -0.011382 0.998986 -0.043554
vn 0.084562 0.995058 -0.052049
vn -0.013171 0.999652 0.022861
vn -0.072946 0.995041 -0.067615
vn -0.014872 0.998600 -0.050771
vn -0.026805 0.998657 0.044331
vn -0.021999 0.964770 0.262172
vn 0.005515 0.976389 0.215949
vn -0.126707 0.989703 0.066589
vn 0.076450 0.986655 0.143760
vn -0.012301 0.997881 0.063894
vn -0.119303 0.782992 0.610484
vn 0.187959 0.780534 0.596187
vn 0.024600 0.980406 0.195443
vn -0.081770 0.896973 0.434458
vn -0.228925 0.835892 0.498876
vn 0.050110 0.015284 0.998627
vn 0.430955 0.040034 0.901485
vn -0.002728 -0.028860 0.999580
vn -0.376876 -0.139329 0.915725
vn -0.484246 0.014790 0.874807
vn 0.131354 -0.483188 0.865607
vn 0.243152 -0.687942 0.683822
vn -0.184823 -0.793158 0.580294
vn -0.114816 -0.762904 0.636235
vn -0.431895 -0.437663 0.788618
vn 0.102040 0.029031 0.994357
vn 0.256483 -0.316943 0.913107
vn 0.072704 -0.160275 0.984391
vn -0.102711 -0.140178 0.984784
vn -0.485889 0.093440 0.869012
vn 0.058084 0.929521 0.364167
vn 0.099800 0.854307 0.510098
vn 0.066656 0.753409 0.654165
vn -0.035575 0.807262 0.589120
vn -0.341699 0.813135 0.471226
vn 0.008388 0.993215 0.115991
vn -0.052731 0.993131 0.104449
vn -0.013064 0.971206 0.237881
vn 0.064612 0.994840 0.078216
vn -0.058647 0.989580 0.131500
vn 0.000002 0.933179 0.359411
vn 0.016042 0.935228 0.353681
vn 0.000000 -0.218059 0.975935
vn 0.038120 -0.225937 0.973396
vn 0.020459 0.931311 0.363649
vn 0.073406 -0.271119 0.959743
vn -0.017336 0.929713 0.367876
vn -0.037230 -0.247920 0.968065
vn -0.037221 0.933137 0.357589
vn -0.102407 -0.224278 0.969130
vt 0.043314 0.431471
vt 0.071767 0.433124
vt 0.077842 0.490758
vt 0.048690 0.489329
vt 0.023154 0.488665
vt 0.017576 0.431165
vt 0.014167 0.372766
vt 0.039741 0.372196
vt 0.067681 0.373619
vt 0.042198 0.314064
vt 0.067493 0.314719
vt 0.016670 0.314597
vt 0.020345 0.258778
vt 0.046472 0.257437
vt 0.068678 0.256301
vt 0.045627 0.198086
vt 0.068810 0.197349
vt 0.019126 0.200431
vt 0.015473 0.139327
vt 0.043554 0.139747
vt 0.068642 0.138402
vt 0.036632 0.078614
vt 0.069246 0.078776
vt 0.011714 0.082755
vt 0.008708 0.027172
vt 0.034613 0.025425
vt 0.065388 0.023209
vt 0.094175 0.434513
vt 0.113140 0.434924
vt 0.117520 0.494212
vt 0.099687 0.492746
vt 0.091362 0.374519
vt 0.112296 0.375083
vt 0.090854 0.315015
vt 0.112544 0.315218
vt 0.091302 0.255831
vt 0.113088 0.255534
vt 0.091756 0.196706
vt 0.113506 0.196039
vt 0.092687 0.137787
vt 0.113972 0.136746
vt 0.096017 0.079379
vt 0.115609 0.077606
vt 0.089795 0.021368
vt 0.109039 0.019911
vt 0.128907 0.435952
vt 0.147829 0.438450
vt 0.154028 0.496694
vt 0.132468 0.495330
vt 0.131823 0.375892
vt 0.152658 0.377242
vt 0.133378 0.315556
vt 0.154660 0.316127
vt 0.134289 0.255365
vt 0.155754 0.255332
vt 0.134565 0.195406
vt 0.156306 0.194831
vt 0.133750 0.135665
vt 0.155567 0.134468
vt 0.130664 0.076172
vt 0.150609 0.073983
vt 0.124064 0.018747
vt 0.143562 0.017140
vt 0.337682 0.077479
vt 0.344702 0.135803
vt 0.318929 0.135647
vt 0.315877 0.076534
vt 0.331858 0.021572
vt 0.351538 0.021728
vt 0.375838 0.022405
vt 0.367931 0.078174
vt 0.377623 0.135264
vt 0.347503 0.193781
vt 0.348182 0.250809
vt 0.320537 0.251612
vt 0.320440 0.194116
vt 0.381396 0.192898
vt 0.382331 0.250004
vt 0.347709 0.306304
vt 0.345042 0.359777
vt 0.320314 0.361231
vt 0.320885 0.307344
vt 0.381189 0.306134
vt 0.376457 0.360964
vt 0.337997 0.410041
vt 0.355409 0.471755
vt 0.335655 0.474834
vt 0.319425 0.412145
vt 0.363607 0.413518
vt 0.380034 0.473854
vt 0.294001 0.074627
vt 0.296798 0.135143
vt 0.278694 0.135067
vt 0.280556 0.075775
vt 0.287027 0.017500
vt 0.309457 0.019999
vt 0.297275 0.194365
vt 0.297219 0.252515
vt 0.276566 0.253574
vt 0.277424 0.194510
vt 0.297723 0.309383
vt 0.298342 0.364955
vt 0.278114 0.369953
vt 0.277166 0.311922
vt 0.298616 0.418894
vt 0.314608 0.482361
vt 0.294245 0.492089
vt 0.278631 0.427822
vt 0.264860 0.074011
vt 0.261342 0.134240
vt 0.244062 0.133137
vt 0.249062 0.071582
vt 0.253232 0.012874
vt 0.268483 0.014700
vt 0.258802 0.194423
vt 0.257595 0.254410
vt 0.239003 0.254976
vt 0.240657 0.194132
vt 0.258205 0.314344
vt 0.260063 0.374753
vt 0.242993 0.378170
vt 0.239913 0.316101
vt 0.261947 0.436479
vt 0.278077 0.501269
vt 0.264085 0.507219
vt 0.248362 0.442231
vt 0.232675 0.070304
vt 0.225974 0.132510
vt 0.205941 0.132729
vt 0.215038 0.070988
vt 0.209604 0.012533
vt 0.234193 0.012218
vt 0.221760 0.193945
vt 0.219923 0.255249
vt 0.199489 0.255349
vt 0.201512 0.194055
vt 0.220794 0.316969
vt 0.224876 0.379657
vt 0.202207 0.379610
vt 0.199713 0.317107
vt 0.234186 0.444012
vt 0.245815 0.508758
vt 0.222748 0.505548
vt 0.208391 0.443152
vt 0.174700 0.441718
vt 0.190758 0.500713
vt 0.176567 0.378781
vt 0.177081 0.316777
vt 0.177817 0.255394
vt 0.179257 0.194400
vt 0.181530 0.133521
vt 0.185386 0.072575
vt 0.176379 0.014575
vt 0.607098 0.075946
vt 0.570247 0.075946
vt 0.566387 0.011295
vt 0.603361 0.009139
vt 0.623387 0.008028
vt 0.626992 0.073926
vt 0.629704 0.136539
vt 0.609627 0.138519
vt 0.564813 0.134487
vt 0.610268 0.193448
vt 0.563096 0.191099
vt 0.630577 0.192626
vt 0.630522 0.244985
vt 0.609842 0.244328
vt 0.562619 0.246019
vt 0.609268 0.294836
vt 0.563258 0.301150
vt 0.630205 0.296570
vt 0.630323 0.352626
vt 0.609563 0.350896
vt 0.566086 0.358972
vt 0.612175 0.418403
vt 0.574000 0.420051
vt 0.632924 0.418606
vt 0.636346 0.489644
vt 0.615852 0.491122
vt 0.577967 0.489926
vt 0.411100 0.075353
vt 0.413415 0.021097
vt 0.462065 0.018285
vt 0.464073 0.071001
vt 0.466281 0.131978
vt 0.418802 0.133650
vt 0.421786 0.191759
vt 0.467190 0.190729
vt 0.467317 0.248577
vt 0.422591 0.249342
vt 0.421551 0.306607
vt 0.467375 0.306434
vt 0.466695 0.365618
vt 0.417604 0.364112
vt 0.406703 0.423093
vt 0.465185 0.427993
vt 0.470030 0.483598
vt 0.419611 0.478584
vt 0.520620 0.072657
vt 0.516902 0.014524
vt 0.516601 0.132392
vt 0.515242 0.190432
vt 0.514959 0.247458
vt 0.515654 0.304721
vt 0.517843 0.363756
vt 0.523338 0.425668
vt 0.527078 0.487291
g overhang
usemtl Material1
f 1/1/1 50/2/50 153/3/153 49/4/49 
f 1/1/1 49/4/49 152/5/152 48/6/48 
f 1/1/1 48/6/48 151/7/151 51/8/51 
f 1/1/1 51/8/51 154/9/154 50/2/50 
f 2/10/2 52/11/52 154/9/154 51/8/51 
f 2/10/2 51/8/51 151/7/151 47/12/47 
f 2/10/2 47/12/47 150/13/150 53/14/53 
f 2/10/2 53/14/53 155/15/155 52/11/52 
f 3/16/3 54/17/54 155/15/155 53/14/53 
f 3/16/3 53/14/53 150/13/150 46/18/46 
f 3/16/3 46/18/46 149/19/149 55/20/55 
f 3/16/3 55/20/55 156/21/156 54/17/54 
f 4/22/4 56/23/56 156/21/156 55/20/55 
f 4/22/4 55/20/55 149/19/149 45/24/45 
f 4/22/4 45/24/45 148/25/148 57/26/57 
f 4/22/4 57/26/57 157/27/157 56/23/56 
f 5/28/5 59/29/59 158/30/158 58/31/58 
f 5/28/5 58/31/58 153/3/153 50/2/50 
f 5/28/5 50/2/50 154/9/154 60/32/60 
f 5/28/5 60/32/60 159/33/159 59/29/59 
f 6/34/6 61/35/61 159/33/159 60/32/60 
f 6/34/6 60/32/60 154/9/154 52/11/52 
f 6/34/6 52/11/52 155/15/155 62/36/62 
f 6/34/6 62/36/62 160/37/160 61/35/61 
f 7/38/7 63/39/63 160/37/160 62/36/62 
f 7/38/7 62/36/62 155/15/155 54/17/54 
f 7/38/7 54/17/54 156/21/156 64/40/64 
f 7/38/7 64/40/64 161/41/161 63/39/63 
f 8/42/8 65/43/65 161/41/161 64/40/64 
f 8/42/8 64/40/64 156/21/156 56/23/56 
f 8/42/8 56/23/56 157/27/157 66/44/66 
f 8/42/8 66/44/66 162/45/162 65/43/65 
f 9/46/9 68/47/68 163/48/163 67/49/67 
f 9/46/9 67/49/67 158/30/158 59/29/59 
f 9/46/9 59/29/59 159/33/159 69/50/69 
f 9/46/9 69/50/69 164/51/164 68/47/68 
f 10/52/10 70/53/70 164/51/164 69/50/69 
f 10/52/10 69/50/69 159/33/159 61/35/61 
f 10/52/10 61/35/61 160/37/160 71/54/71 
f 10/52/10 71/54/71 165/55/165 70/53/70 
f 11/56/11 72/57/72 165/55/165 71/54/71 
f 11/56/11 71/54/71 160/37/160 63/39/63 
f 11/56/11 63/39/63 161/41/161 73/58/73 
f 11/56/11 73/58/73 166/59/166 72/57/72 
f 12/60/12 74/61/74 166/59/166 73/58/73 
f 12/60/12 73/58/73 161/41/161 65/43/65 
f 12/60/12 65/43/65 162/45/162 75/62/75 
f 12/60/12 75/62/75 167/63/167 74/61/74 
f 13/64/13 76/65/76 174/66/174 77/67/77 
f 13/64/13 77/67/77 173/68/173 78/69/78 
f 13/64/13 78/69/78 168/70/168 79/71/79 
f 13/64/13 79/71/79 169/72/169 76/65/76 
f 14/73/14 80/74/80 175/75/175 81/76/81 
f 14/73/14 81/76/81 174/66/174 76/65/76 
f 14/73/14 76/65/76 169/72/169 82/77/82 
f 14/73/14 82/77/82 170/78/170 80/74/80 
f 15/79/15 83/80/83 176/81/176 84/82/84 
f 15/79/15 84/82/84 175/75/175 80/74/80 
f 15/79/15 80/74/80 170/78/170 85/83/85 
f 15/79/15 85/83/85 171/84/171 83/80/83 
f 16/85/16 86/86/86 177/87/177 87/88/87 
f 16/85/16 87/88/87 176/81/176 83/80/83 
f 16/85/16 83/80/83 171/84/171 88/89/88 
f 16/85/16 88/89/88 172/90/172 86/86/86 
f 17/91/17 89/92/89 179/93/179 90/94/90 
f 17/91/17 90/94/90 178/95/178 91/96/91 
f 17/91/17 91/96/91 173/68/173 77/67/77 
f 17/91/17 77/67/77 174/66/174 89/92/89 
f 18/97/18 92/98/92 180/99/180 93/100/93 
f 18/97/18 93/100/93 179/93/179 89/92/89 
f 18/97/18 89/92/89 174/66/174 81/76/81 
f 18/97/18 81/76/81 175/75/175 92/98/92 
f 19/101/19 94/102/94 181/103/181 95/104/95 
f 19/101/19 95/104/95 180/99/180 92/98/92 
f 19/101/19 92/98/92 175/75/175 84/82/84 
f 19/101/19 84/82/84 176/81/176 94/102/94 
f 20/105/20 96/106/96 182/107/182 97/108/97 
f 20/105/20 97/108/97 181/103/181 94/102/94 
f 20/105/20 94/102/94 176/81/176 87/88/87 
f 20/105/20 87/88/87 177/87/177 96/106/96 
f 21/109/21 98/110/98 184/111/184 99/112/99 
f 21/109/21 99/112/99 183/113/183 100/114/100 
f 21/109/21 100/114/100 178/95/178 90/94/90 
f 21/109/21 90/94/90 179/93/179 98/110/98 
f 22/115/22 101/116/101 185/117/185 102/118/102 
f 22/115/22 102/118/102 184/111/184 98/110/98 
f 22/115/22 98/110/98 179/93/179 93/100/93 
f 22/115/22 93/100/93 180/99/180 101/116/101 
f 23/119/23 103/120/103 186/121/186 104/122/104 
f 23/119/23 104/122/104 185/117/185 101/116/101 
f 23/119/23 101/116/101 180/99/180 95/104/95 
f 23/119/23 95/104/95 181/103/181 103/120/103 
f 24/123/24 105/124/105 187/125/187 106/126/106 
f 24/123/24 106/126/106 186/121/186 103/120/103 
f 24/123/24 103/120/103 181/103/181 97/108/97 
f 24/123/24 97/108/97 182/107/182 105/124/105 
f 25/127/25 107/128/107 189/129/189 108/130/108 
f 25/127/25 108/130/108 188/131/188 109/132/109 
f 25/127/25 109/132/109 183/113/183 99/112/99 
f 25/127/25 99/112/99 184/111/184 107/128/107 
f 26/133/26 110/134/110 190/135/190 111/136/111 
f 26/133/26 111/136/111 189/129/189 107/128/107 
f 26/133/26 107/128/107 184/111/184 102/118/102 
f 26/133/26 102/118/102 185/117/185 110/134/110 
f 27/137/27 112/138/112 191/139/191 113/140/113 
f 27/137/27 113/140/113 190/135/190 110/134/110 
f 27/137/27 110/134/110 185/117/185 104/122/104 
f 27/137/27 104/122/104 186/121/186 112/138/112 
f 28/141/28 114/142/114 192/143/192 115/144/115 
f 28/141/28 115/144/115 191/139/191 112/138/112 
f 28/141/28 112/138/112 186/121/186 106/126/106 
f 28/141/28 106/126/106 187/125/187 114/142/114 
f 29/145/29 115/144/115 192/143/192 116/146/116 
f 29/145/29 116/146/116 163/48/163 68/47/68 
f 29/145/29 68/47/68 164/51/164 117/147/117 
f 29/145/29 117/147/117 191/139/191 115/144/115 
f 30/148/30 113/140/113 191/139/191 117/147/117 
f 30/148/30 117/147/117 164/51/164 70/53/70 
f 30/148/30 70/53/70 165/55/165 118/149/118 
f 30/148/30 118/149/118 190/135/190 113/140/113 
f 31/150/31 111/136/111 190/135/190 118/149/118 
f 31/150/31 118/149/118 165/55/165 72/57/72 
f 31/150/31 72/57/72 166/59/166 119/151/119 
f 31/150/31 119/151/119 189/129/189 111/136/111 
f 32/152/32 108/130/108 189/129/189 119/151/119 
f 32/152/32 119/151/119 166/59/166 74/61/74 
f 32/152/32 74/61/74 167/63/167 120/153/120 
f 32/152/32 120/153/120 188/131/188 108/130/108 
f 33/154/33 133/155/133 198/156/198 134/157/134 
f 33/154/33 134/157/134 200/158/200 135/159/135 
f 33/154/33 135/159/135 201/160/201 121/161/121 
f 33/154/33 121/161/121 199/162/199 133/155/133 
f 34/163/34 136/164/136 199/162/199 121/161/121 
f 34/163/34 121/161/121 201/160/201 137/165/137 
f 34/163/34 137/165/137 203/166/203 122/167/122 
f 34/163/34 122/167/122 202/168/202 136/164/136 
f 35/169/35 138/170/138 202/168/202 122/167/122 
f 35/169/35 122/167/122 203/166/203 139/171/139 
f 35/169/35 139/171/139 205/172/205 123/173/123 
f 35/169/35 123/173/123 204/174/204 138/170/138 
f 36/175/36 140/176/140 204/174/204 123/173/123 
f 36/175/36 123/173/123 205/172/205 141/177/141 
f 36/175/36 141/177/141 207/178/207 142/179/142 
f 36/175/36 142/179/142 206/180/206 140/176/140 
f 37/181/37 79/71/79 168/70/168 128/182/128 
f 37/181/37 128/182/128 193/183/193 124/184/124 
f 37/181/37 124/184/124 194/185/194 129/186/129 
f 37/181/37 129/186/129 169/72/169 79/71/79 
f 38/187/38 82/77/82 169/72/169 129/186/129 
f 38/187/38 129/186/129 194/185/194 125/188/125 
f 38/187/38 125/188/125 195/189/195 130/190/130 
f 38/187/38 130/190/130 170/78/170 82/77/82 
f 39/191/39 85/83/85 170/78/170 130/190/130 
f 39/191/39 130/190/130 195/189/195 126/192/126 
f 39/191/39 126/192/126 196/193/196 131/194/131 
f 39/191/39 131/194/131 171/84/171 85/83/85 
f 40/195/40 88/89/88 171/84/171 131/194/131 
f 40/195/40 131/194/131 196/193/196 127/196/127 
f 40/195/40 127/196/127 197/197/197 132/198/132 
f 40/195/40 132/198/132 172/90/172 88/89/88 
f 41/199/41 124/184/124 193/183/193 143/200/143 
f 41/199/41 143/200/143 198/156/198 133/155/133 
f 41/199/41 133/155/133 199/162/199 144/201/144 
f 41/199/41 144/201/144 194/185/194 124/184/124 
f 42/202/42 125/188/125 194/185/194 144/201/144 
f 42/202/42 144/201/144 199/162/199 136/164/136 
f 42/202/42 136/164/136 202/168/202 145/203/145 
f 42/202/42 145/203/145 195/189/195 125/188/125 
f 43/204/43 126/192/126 195/189/195 145/203/145 
f 43/204/43 145/203/145 202/168/202 138/170/138 
f 43/204/43 138/170/138 204/174/204 146/205/146 
f 43/204/43 146/205/146 196/193/196 126/192/126 
f 44/206/44 127/196/127 196/193/196 146/205/146 
f 44/206/44 146/205/146 204/174/204 140/176/140 
f 44/206/44 140/176/140 206/180/206 147/207/147 
f 44/206/44 147/207/147 197/197/197 127/196/127 
