mtllib pointyrock3.mtl
o pointyrock3.obj
v -0.560606 -0.248783 -0.226056
v -0.398005 -0.241816 -0.294066
v -0.053091 -0.198611 -0.302238
v 0.148642 -0.021575 -0.212150
v 0.273208 0.113522 -0.147215
v -0.579711 -0.081569 -0.230596
v -0.346623 0.045561 -0.458754
v -0.139473 0.075368 -0.359891
v 0.070645 0.195183 -0.191653
v 0.234349 0.294596 -0.137308
v -0.600464 0.148415 -0.234494
v -0.386580 0.248480 -0.398593
v -0.078109 0.335426 -0.273352
v 0.148719 0.413190 -0.153302
v 0.387916 0.459804 -0.067262
v -0.538360 0.383789 -0.199884
v -0.306715 0.387131 -0.143681
v -0.015381 0.500296 -0.076088
v 0.248210 0.641639 -0.105776
v 0.492394 0.658633 -0.021403
v -0.437456 0.518909 -0.132920
v -0.212124 0.564643 -0.017262
v 0.145361 0.631920 0.058085
v 0.365482 0.760725 0.024082
v 0.537489 0.789583 0.017240
v -0.588942 -0.221108 -0.163114
v -0.415172 -0.314247 -0.174058
v -0.072593 -0.286484 -0.162469
v 0.139845 -0.097766 -0.138760
v 0.312238 0.118811 -0.080162
v 0.334291 0.337188 -0.009988
v 0.497277 0.503330 -0.019921
v 0.763166 0.758498 0.013348
v 0.769785 0.927448 0.112442
v 0.492407 0.877012 0.084881
v 0.226683 0.804578 0.068019
v -0.142592 0.749838 0.020430
v -0.421927 0.600925 -0.054145
v -0.610865 0.460240 -0.111346
v -0.666964 0.170714 -0.144376
v -0.658666 -0.058037 -0.152481
v -0.569610 -0.136898 -0.049367
v -0.279047 -0.257351 -0.062388
v -0.075068 -0.275279 -0.036622
v 0.150999 -0.064759 -0.013093
v 0.357417 0.098746 0.034073
v 0.417175 0.328455 0.096125
v 0.628437 0.563750 0.105234
v 0.927267 0.892028 0.220993
v 0.871985 1.013389 0.272162
v 0.637791 0.980463 0.245091
v 0.254361 0.855497 0.174305
v -0.101386 0.872324 0.144089
v -0.368020 0.710601 0.081643
v -0.561239 0.516993 0.005420
v -0.665933 0.218029 -0.047962
v -0.649607 0.019520 -0.041125
v -0.489474 -0.018875 0.105933
v -0.225507 -0.157396 0.230662
v -0.015975 -0.062872 0.107520
v 0.192616 0.056434 0.136371
v 0.393515 0.168220 0.170108
v 0.504779 0.430539 0.221029
v 0.826295 0.632305 0.306275
v 0.980704 0.915628 0.359791
v 0.974645 1.049213 0.354135
v 0.609143 1.001138 0.339140
v 0.211348 0.800170 0.280553
v -0.126558 0.846384 0.279948
v -0.305795 0.736486 0.238060
v -0.454630 0.550696 0.196755
v -0.607353 0.277554 0.069152
v -0.563948 0.119350 0.055493
v -0.399684 0.063536 0.253437
v -0.125131 0.047798 0.294277
v 0.096452 0.140670 0.214122
v 0.288332 0.227379 0.220007
v 0.402168 0.283709 0.278845
v -0.397209 0.205206 0.250838
v -0.150488 0.314170 0.422559
v 0.183100 0.392022 0.364205
v 0.389204 0.456329 0.334315
v 0.493669 0.496880 0.351059
v -0.326273 0.374180 0.349206
v -0.060769 0.448628 0.516033
v 0.254343 0.559279 0.436796
v 0.501323 0.625157 0.461918
v 0.734571 0.671625 0.429610
v -0.262798 0.653533 0.422845
v -0.042160 0.657805 0.467736
v 0.253227 0.678388 0.424913
v 0.545603 0.765199 0.555436
v 0.815088 0.842185 0.532100
v -0.233910 0.760202 0.352747
v -0.056210 0.745236 0.396384
v 0.198621 0.762913 0.395004
v 0.563458 0.889393 0.462924
v 0.968624 1.015561 0.489167
v -0.109856 0.544646 0.559782
v -0.120100 0.679017 0.509760
v -0.289351 0.509877 0.422560
v -0.111475 0.758776 0.459696
v -0.229896 0.756921 0.406018
v -0.296317 0.738579 0.310623
v -0.393109 0.591278 0.295607
v -0.504733 0.375635 0.217288
v -0.331906 -0.095275 -0.426424
v -0.446392 -0.100570 -0.378433
v -0.469688 0.017780 -0.381639
v -0.174257 0.125091 -0.472213
v -0.108746 -0.066888 -0.431802
v -0.488967 0.210624 -0.369697
v -0.151590 0.334263 -0.395262
v -0.439314 0.374697 -0.325315
v -0.293673 0.380365 -0.294587
v -0.112255 0.449118 -0.256031
v -0.427648 -0.118668 0.201116
v -0.488977 -0.214240 0.117337
v -0.265395 -0.302601 0.129454
v -0.102020 -0.310685 0.146437
v -0.039659 -0.152660 0.202669
v -0.359202 -0.047286 0.283382
v -0.130622 -0.059724 0.312569
v 0.056705 0.000550 0.227292
vn -0.653365 -0.525975 -0.544486
vn -0.169078 -0.840609 -0.514577
vn 0.534470 -0.469706 -0.702651
vn 0.587928 -0.252783 -0.768402
vn 0.723653 -0.107079 -0.681807
vn -0.764781 -0.114757 -0.633987
vn -0.302973 0.011934 -0.952924
vn 0.790129 0.068726 -0.609075
vn 0.368670 0.118084 -0.922029
vn 0.603405 -0.065845 -0.794712
vn -0.750070 0.103457 -0.653216
vn -0.392682 0.529758 -0.751769
vn 0.760815 0.012435 -0.648849
vn 0.418345 0.043575 -0.907242
vn 0.476565 -0.228876 -0.848824
vn -0.361201 0.635894 -0.682036
vn -0.091372 0.898672 -0.428998
vn 0.080411 0.764915 -0.639093
vn 0.193895 0.305173 -0.932349
vn 0.289280 0.082282 -0.953702
vn 0.027355 0.467993 -0.883309
vn 0.092481 0.385364 -0.918119
vn -0.175646 0.611341 -0.771629
vn -0.080008 0.591137 -0.802594
vn 0.070626 0.440926 -0.894760
vn -0.691430 -0.705870 0.153858
vn -0.228819 -0.941832 0.246158
vn 0.379350 -0.923600 -0.055289
vn 0.696778 -0.704055 -0.137135
vn 0.870054 -0.373532 -0.321683
vn 0.819036 -0.341609 -0.460959
vn 0.643249 -0.539038 -0.543755
vn 0.491061 0.043058 -0.870060
vn 0.078022 0.667226 -0.740758
vn -0.110068 0.763794 -0.636006
vn -0.030824 0.658861 -0.751633
vn 0.030370 0.497148 -0.867134
vn -0.279716 0.630663 -0.723894
vn -0.718977 0.549878 -0.425095
vn -0.952516 0.112431 -0.282971
vn -0.946613 -0.224428 -0.231421
vn -0.724142 -0.513305 0.460582
vn -0.240091 -0.945382 0.220477
vn 0.421530 -0.851702 0.311313
vn 0.489463 -0.769386 0.410453
vn 0.797256 -0.599210 0.073004
vn 0.824614 -0.539658 -0.169648
vn 0.707935 -0.601329 -0.370448
vn 0.788037 -0.055658 -0.613107
vn 0.377900 0.742989 -0.552412
vn -0.203394 0.913432 -0.352523
vn -0.116208 0.977187 -0.177767
vn -0.184337 0.971459 -0.149286
vn -0.596611 0.780073 -0.188523
vn -0.851502 0.502920 0.148378
vn -0.940743 0.055520 0.334545
vn -0.866789 -0.234111 0.440306
vn -0.807356 -0.020214 0.589719
vn 0.060403 -0.693100 0.718306
vn 0.743816 -0.545470 0.386264
vn 0.120130 -0.577458 0.807534
vn 0.538255 -0.603761 0.588008
vn 0.675803 -0.661282 0.325573
vn 0.626781 -0.743140 0.234282
vn 0.903614 -0.427780 0.022047
vn 0.662210 0.748876 0.025733
vn -0.317049 0.947151 0.048839
vn -0.192382 0.939536 0.283305
vn -0.156590 0.897539 0.412194
vn -0.550782 0.790582 0.267620
vn -0.835813 0.438252 0.330685
vn -0.806548 -0.009731 0.591089
vn -0.739185 -0.122964 0.662183
vn -0.582608 -0.058490 0.810646
vn 0.010562 -0.176338 0.984273
vn 0.488314 -0.447537 0.749173
vn 0.032693 -0.424903 0.904648
vn 0.149383 -0.405392 0.901855
vn -0.585581 -0.214309 0.781772
vn -0.051648 -0.481063 0.875163
vn 0.254888 -0.559267 0.788830
vn 0.145377 -0.540040 0.828989
vn 0.377826 -0.605520 0.700423
vn -0.540922 -0.299153 0.786073
vn 0.049661 -0.242428 0.968898
vn 0.099468 -0.410168 0.906570
vn 0.082938 -0.600320 0.795448
vn 0.363844 -0.668673 0.648455
vn -0.625591 0.323167 0.710070
vn 0.355620 0.295393 0.886723
vn -0.126866 0.147519 0.980889
vn -0.156382 -0.028426 0.987287
vn 0.393681 -0.398877 0.828199
vn -0.134966 0.952421 0.273273
vn 0.132805 0.807992 0.574031
vn -0.211143 0.703998 0.678090
vn -0.314226 0.704296 0.636576
vn 0.131281 0.441237 0.887736
vn -0.152288 -0.047801 0.987180
vn 0.092355 0.442644 0.891929
vn -0.599297 -0.094206 0.794965
vn 0.165525 0.826573 0.537938
vn -0.418286 0.819173 0.392419
vn -0.693068 0.666212 0.275351
vn -0.814299 0.342140 0.468889
vn -0.776000 0.073190 0.626472
vn -0.154985 -0.444211 -0.882415
vn -0.501394 -0.319079 -0.804235
vn -0.627133 -0.075117 -0.775282
vn 0.571982 0.109601 -0.812911
vn 0.467457 -0.282103 -0.837796
vn -0.655182 0.284290 -0.699939
vn 0.424945 0.447838 -0.786679
vn -0.446648 0.768980 -0.457356
vn -0.275284 0.904925 -0.324545
vn 0.086465 0.864825 -0.494573
vn -0.602358 -0.358940 0.712970
vn -0.643929 -0.616391 0.453231
vn -0.161189 -0.916565 0.365960
vn 0.474888 -0.837839 0.269274
vn 0.756200 -0.601237 0.258218
vn -0.440130 -0.199257 0.875547
vn 0.142546 -0.341869 0.928873
vn 0.764329 -0.440885 0.470554
vt 0.404686 0.785117
vt 0.397867 0.765800
vt 0.413577 0.758000
vt 0.422982 0.773161
vt 0.384322 0.797240
vt 0.381442 0.777333
vt 0.329007 0.823788
vt 0.328840 0.795925
vt 0.362462 0.773975
vt 0.360158 0.808137
vt 0.298815 0.838069
vt 0.306948 0.814072
vt 0.410302 0.810002
vt 0.431134 0.798431
vt 0.386979 0.823747
vt 0.321703 0.858916
vt 0.359331 0.841541
vt 0.284057 0.871963
vt 0.411952 0.835388
vt 0.431900 0.823681
vt 0.388420 0.845407
vt 0.310133 0.894143
vt 0.363124 0.873562
vt 0.266684 0.905255
vt 0.401340 0.902419
vt 0.407920 0.862466
vt 0.446141 0.839947
vt 0.438187 0.878935
vt 0.342771 0.917993
vt 0.288503 0.927780
vt 0.250851 0.930134
vt 0.384462 0.727063
vt 0.428961 0.713285
vt 0.419033 0.742321
vt 0.391382 0.750803
vt 0.346743 0.751822
vt 0.316112 0.781401
vt 0.292266 0.811095
vt 0.272320 0.844030
vt 0.249791 0.880831
vt 0.225466 0.916701
vt 0.198315 0.954510
vt 0.251107 0.962689
vt 0.316803 0.962749
vt 0.405844 0.949626
vt 0.462731 0.895878
vt 0.487915 0.848597
vt 0.490092 0.779140
vt 0.452849 0.792253
vt 0.463196 0.729388
vt 0.439870 0.757961
vt 0.367347 0.701317
vt 0.452537 0.680821
vt 0.320873 0.734294
vt 0.293830 0.774023
vt 0.269989 0.809611
vt 0.245463 0.846502
vt 0.219290 0.884209
vt 0.191121 0.919497
vt 0.152301 0.961398
vt 0.205084 0.995599
vt 0.305979 0.991603
vt 0.399283 0.992845
vt 0.464705 0.942463
vt 0.504521 0.876764
vt 0.518607 0.790576
vt 0.503239 0.724620
vt 0.292636 0.685152
vt 0.293623 0.650159
vt 0.324803 0.643334
vt 0.321055 0.684986
vt 0.288313 0.713605
vt 0.310525 0.710498
vt 0.263429 0.777824
vt 0.279661 0.742186
vt 0.244659 0.811435
vt 0.220852 0.845403
vt 0.195958 0.878872
vt 0.171052 0.906013
vt 0.139808 0.925006
vt 0.092769 0.925688
vt 0.074889 0.950411
vt 0.059027 0.812901
vt 0.024949 0.832462
vt 0.047605 0.714988
vt 0.003872 0.713066
vt 0.065255 0.659563
vt 0.040977 0.608395
vt 0.114837 0.608618
vt 0.117550 0.532636
vt 0.205279 0.549812
vt 0.235585 0.504456
vt 0.258156 0.566995
vt 0.313399 0.536186
vt 0.287237 0.609664
vt 0.360599 0.595457
vt 0.241300 0.699587
vt 0.203051 0.707747
vt 0.223458 0.643368
vt 0.255445 0.653665
vt 0.243149 0.743524
vt 0.198955 0.763629
vt 0.231588 0.786976
vt 0.198186 0.808171
vt 0.225496 0.812495
vt 0.204206 0.834935
vt 0.159203 0.718350
vt 0.182982 0.644611
vt 0.161076 0.782279
vt 0.167910 0.831687
vt 0.180001 0.861702
vt 0.140121 0.699389
vt 0.118033 0.710103
vt 0.119037 0.677569
vt 0.149145 0.660965
vt 0.128599 0.799030
vt 0.122400 0.741436
vt 0.142094 0.852157
vt 0.157992 0.883539
vt 0.099676 0.712766
vt 0.097027 0.688615
vt 0.097870 0.806859
vt 0.089318 0.734615
vt 0.118152 0.873583
vt 0.139244 0.896789
vt 0.267965 0.692048
vt 0.272031 0.664888
vt 0.266622 0.717061
vt 0.083266 0.694614
vt 0.093006 0.664110
vt 0.120553 0.642211
vt 0.158099 0.617721
g pointyrock3
usemtl Material1
f 7/1/7 107/2/107 108/3/108 109/4/109 
f 110/5/110 111/6/111 107/2/107 7/1/7 
f 9/7/9 4/8/4 3/9/3 8/10/8 
f 10/11/10 5/12/5 4/8/4 9/7/9 
f 12/13/12 7/1/7 109/4/109 112/14/112 
f 113/15/113 110/5/110 7/1/7 12/13/12 
f 14/16/14 9/7/9 8/10/8 13/17/13 
f 15/18/15 10/11/10 9/7/9 14/16/14 
f 115/19/115 12/13/12 112/14/112 114/20/114 
f 116/21/116 113/15/113 12/13/12 115/19/115 
f 19/22/19 14/16/14 13/17/13 18/23/18 
f 20/24/20 15/18/15 14/16/14 19/22/19 
f 22/25/22 17/26/17 16/27/16 21/28/21 
f 23/29/23 18/23/18 17/26/17 22/25/22 
f 24/30/24 19/22/19 18/23/18 23/29/23 
f 25/31/25 20/24/20 19/22/19 24/30/24 
f 27/32/27 26/33/26 1/34/1 2/35/2 
f 28/36/28 27/32/27 2/35/2 3/9/3 
f 29/37/29 28/36/28 3/9/3 4/8/4 
f 30/38/30 29/37/29 4/8/4 5/12/5 
f 31/39/31 30/38/30 5/12/5 10/11/10 
f 32/40/32 31/39/31 10/11/10 15/18/15 
f 33/41/33 32/40/32 15/18/15 20/24/20 
f 34/42/34 33/41/33 20/24/20 25/31/25 
f 35/43/35 34/42/34 25/31/25 24/30/24 
f 36/44/36 35/43/35 24/30/24 23/29/23 
f 37/45/37 36/44/36 23/29/23 22/25/22 
f 38/46/38 37/45/37 22/25/22 21/28/21 
f 39/47/39 38/46/38 21/28/21 16/27/16 
f 40/48/40 39/47/39 16/27/16 11/49/11 
f 41/50/41 40/48/40 11/49/11 6/51/6 
f 26/33/26 41/50/41 6/51/6 1/34/1 
f 43/52/43 42/53/42 26/33/26 27/32/27 
f 44/54/44 43/52/43 27/32/27 28/36/28 
f 45/55/45 44/54/44 28/36/28 29/37/29 
f 46/56/46 45/55/45 29/37/29 30/38/30 
f 47/57/47 46/56/46 30/38/30 31/39/31 
f 48/58/48 47/57/47 31/39/31 32/40/32 
f 49/59/49 48/58/48 32/40/32 33/41/33 
f 50/60/50 49/59/49 33/41/33 34/42/34 
f 51/61/51 50/60/50 34/42/34 35/43/35 
f 52/62/52 51/61/51 35/43/35 36/44/36 
f 53/63/53 52/62/52 36/44/36 37/45/37 
f 54/64/54 53/63/53 37/45/37 38/46/38 
f 55/65/55 54/64/54 38/46/38 39/47/39 
f 56/66/56 55/65/55 39/47/39 40/48/40 
f 57/67/57 56/66/56 40/48/40 41/50/41 
f 42/53/42 57/67/57 41/50/41 26/33/26 
f 59/68/59 117/69/117 118/70/118 119/71/119 
f 121/72/121 59/68/59 119/71/119 120/73/120 
f 61/74/61 60/75/60 44/54/44 45/55/45 
f 62/76/62 61/74/61 45/55/45 46/56/46 
f 63/77/63 62/76/62 46/56/46 47/57/47 
f 64/78/64 63/77/63 47/57/47 48/58/48 
f 65/79/65 64/78/64 48/58/48 49/59/49 
f 66/80/66 65/79/65 49/59/49 50/60/50 
f 67/81/67 66/80/66 50/60/50 51/82/51 
f 68/83/68 67/81/67 51/82/51 52/84/52 
f 69/85/69 68/83/68 52/84/52 53/86/53 
f 70/87/70 69/85/69 53/86/53 54/88/54 
f 71/89/71 70/87/70 54/88/54 55/90/55 
f 72/91/72 71/89/71 55/90/55 56/92/56 
f 73/93/73 72/91/72 56/92/56 57/94/57 
f 58/95/58 73/93/73 57/94/57 42/96/42 
f 75/97/75 80/98/80 79/99/79 74/100/74 
f 76/101/76 81/102/81 80/98/80 75/97/75 
f 77/103/77 82/104/82 81/102/81 76/101/76 
f 78/105/78 83/106/83 82/104/82 77/103/77 
f 80/98/80 85/107/85 84/108/84 79/99/79 
f 81/102/81 86/109/86 85/107/85 80/98/80 
f 82/104/82 87/110/87 86/109/86 81/102/81 
f 83/106/83 88/111/88 87/110/87 82/104/82 
f 99/112/99 100/113/100 89/114/89 101/115/101 
f 86/109/86 91/116/91 90/117/90 85/107/85 
f 87/110/87 92/118/92 91/116/91 86/109/86 
f 88/111/88 93/119/93 92/118/92 87/110/87 
f 100/113/100 102/120/102 103/121/103 89/114/89 
f 91/116/91 96/122/96 95/123/95 90/117/90 
f 92/118/92 97/124/97 96/122/96 91/116/91 
f 93/119/93 98/125/98 97/124/97 92/118/92 
f 123/126/123 122/127/122 117/69/117 59/68/59 
f 124/128/124 123/126/123 59/68/59 121/72/121 
f 77/103/77 76/101/76 60/75/60 61/74/61 
f 78/105/78 77/103/77 61/74/61 62/76/62 
f 83/106/83 78/105/78 62/76/62 63/77/63 
f 88/111/88 83/106/83 63/77/63 64/78/64 
f 93/119/93 88/111/88 64/78/64 65/79/65 
f 98/125/98 93/119/93 65/79/65 66/80/66 
f 97/124/97 98/125/98 66/80/66 67/81/67 
f 96/122/96 97/124/97 67/81/67 68/83/68 
f 95/123/95 96/122/96 68/83/68 69/85/69 
f 94/129/94 95/123/95 69/85/69 70/87/70 
f 89/114/89 103/121/103 104/130/104 105/131/105 
f 101/115/101 89/114/89 105/131/105 106/132/106 
f 79/99/79 84/108/84 72/91/72 73/93/73 
f 74/100/74 79/99/79 73/93/73 58/95/58 
f 85/107/85 90/117/90 100/113/100 99/112/99 
f 84/108/84 85/107/85 99/112/99 101/115/101 
f 90/117/90 95/123/95 102/120/102 100/113/100 
f 95/123/95 94/129/94 103/121/103 102/120/102 
f 94/129/94 70/87/70 104/130/104 103/121/103 
f 70/87/70 71/89/71 105/131/105 104/130/104 
f 71/89/71 72/91/72 106/132/106 105/131/105 
f 72/91/72 84/108/84 101/115/101 106/132/106 
f 2/35/2 1/34/1 108/3/108 107/2/107 
f 1/34/1 6/51/6 109/4/109 108/3/108 
f 8/10/8 3/9/3 111/6/111 110/5/110 
f 3/9/3 2/35/2 107/2/107 111/6/111 
f 6/51/6 11/49/11 112/14/112 109/4/109 
f 13/17/13 8/10/8 110/5/110 113/15/113 
f 11/49/11 16/27/16 114/20/114 112/14/112 
f 16/27/16 17/26/17 115/19/115 114/20/114 
f 18/23/18 13/17/13 113/15/113 116/21/116 
f 17/26/17 18/23/18 116/21/116 115/19/115 
f 58/95/58 42/96/42 118/70/118 117/69/117 
f 42/96/42 43/52/43 119/71/119 118/70/118 
f 43/52/43 44/54/44 120/73/120 119/71/119 
f 44/54/44 60/75/60 121/72/121 120/73/120 
f 75/97/75 74/100/74 122/127/122 123/126/123 
f 74/100/74 58/95/58 117/69/117 122/127/122 
f 76/101/76 75/97/75 123/126/123 124/128/124 
f 60/75/60 76/101/76 124/128/124 121/72/121 
