mtllib pointyrock1.mtl
o pointyrock1.obj
v -0.560606 -0.248783 -0.226056
v -0.398005 -0.241816 -0.294066
v -0.173325 -0.153555 -0.302238
v 0.028408 0.023482 -0.212150
v 0.152974 0.158579 -0.147215
v -0.579711 -0.081569 -0.230596
v -0.411895 -0.058683 -0.338238
v -0.139473 0.075368 -0.359891
v 0.070645 0.195183 -0.191653
v 0.234349 0.294596 -0.137308
v -0.600464 0.148415 -0.234494
v -0.394833 0.215791 -0.304082
v -0.078109 0.335426 -0.273352
v 0.148719 0.413190 -0.153302
v 0.361649 0.496486 -0.113964
v -0.538360 0.383789 -0.199884
v -0.306715 0.387131 -0.143681
v -0.015381 0.500296 -0.076088
v 0.248210 0.641639 -0.105776
v 0.481799 0.725139 -0.061226
v -0.437456 0.518909 -0.132920
v -0.212124 0.564643 -0.017262
v 0.082711 0.694419 0.030185
v 0.335849 0.842545 -0.008918
v 0.533657 0.875731 -0.016788
v -0.588942 -0.221108 -0.163114
v -0.415172 -0.314247 -0.174058
v -0.192827 -0.241428 -0.162469
v 0.019611 -0.052709 -0.138760
v 0.192004 0.163867 -0.080162
v 0.299979 0.355476 -0.048099
v 0.487414 0.546540 -0.059522
v 0.793186 0.839984 -0.021263
v 0.800798 1.034276 0.092695
v 0.481813 0.976275 0.061000
v 0.176231 0.892976 0.041608
v -0.142592 0.749838 0.020430
v -0.421927 0.600925 -0.054145
v -0.610865 0.460240 -0.111346
v -0.666964 0.170714 -0.144376
v -0.658666 -0.058037 -0.152481
v -0.569610 -0.136898 -0.049367
v -0.399281 -0.212294 -0.062388
v -0.195302 -0.230223 -0.036622
v 0.030765 -0.019702 -0.013093
v 0.237183 0.143803 0.034073
v 0.395296 0.345433 0.073931
v 0.638247 0.616023 0.084405
v 0.981902 0.993542 0.217528
v 0.918328 1.133108 0.276373
v 0.649004 1.144134 0.245242
v 0.208060 0.951532 0.163838
v -0.101386 0.872324 0.144089
v -0.368020 0.710601 0.081643
v -0.561239 0.516993 0.005420
v -0.665933 0.218029 -0.047962
v -0.649607 0.019520 -0.041125
v -0.489474 -0.018875 0.105933
v -0.345690 -0.068141 0.092947
v -0.136209 -0.017815 0.107520
v 0.072382 0.101490 0.136371
v 0.273281 0.213276 0.170108
v 0.496041 0.462831 0.217570
v 0.865784 0.694862 0.315603
v 1.043355 1.020683 0.377146
v 1.036386 1.174306 0.370642
v 0.616059 1.146835 0.353398
v 0.158595 0.887906 0.286023
v -0.127100 0.846861 0.280098
v -0.306928 0.785756 0.237584
v -0.454178 0.599806 0.199017
v -0.607353 0.325431 0.069152
v -0.563948 0.119350 0.055493
v -0.399684 0.063536 0.253437
v -0.245365 0.092854 0.294277
v -0.023782 0.185727 0.214122
v 0.168098 0.272435 0.220007
v 0.281934 0.328766 0.278845
v -0.397209 0.205206 0.250838
v -0.150488 0.314170 0.422559
v 0.126110 0.418536 0.382223
v 0.363129 0.492489 0.347850
v 0.483265 0.539122 0.367104
v -0.321989 0.497727 0.371268
v -0.101796 0.530706 0.518560
v 0.208039 0.610882 0.465703
v 0.492067 0.686641 0.494592
v 0.760301 0.740079 0.457439
v -0.314270 0.670501 0.376329
v -0.123700 0.707839 0.468690
v 0.206756 0.747856 0.452037
v 0.542988 0.847690 0.602139
v 0.852896 0.936223 0.575302
v -0.255376 0.808159 0.354909
v -0.118355 0.792238 0.398749
v 0.143960 0.845061 0.417642
v 0.563522 0.990513 0.495749
v 1.029463 1.135605 0.525929
vn -0.620977 -0.557381 -0.551103
vn -0.147681 -0.708465 -0.690121
vn 0.401439 -0.502467 -0.765750
vn 0.678837 -0.417621 -0.603965
vn 0.767998 -0.423689 -0.480277
vn -0.632195 -0.098715 -0.768496
vn -0.292251 -0.000587 -0.956341
vn 0.240155 0.003457 -0.970728
vn 0.559305 -0.160474 -0.813281
vn 0.718485 -0.440321 -0.538420
vn -0.644816 0.281874 -0.710465
vn -0.386157 0.530678 -0.754496
vn 0.193572 0.304092 -0.932769
vn 0.421142 -0.026020 -0.906622
vn 0.506720 -0.323442 -0.799137
vn -0.325068 0.575506 -0.750416
vn -0.116284 0.651649 -0.749554
vn -0.031912 0.493038 -0.869423
vn 0.084524 0.248310 -0.964986
vn 0.172245 0.138512 -0.975267
vn 0.027354 0.467993 -0.883309
vn 0.119001 0.289497 -0.949753
vn -0.101949 0.410122 -0.906315
vn -0.102882 0.494028 -0.863337
vn -0.004465 0.460856 -0.887464
vn -0.691793 -0.705530 0.153783
vn -0.175193 -0.939392 0.294703
vn 0.443049 -0.896395 -0.013524
vn 0.696779 -0.704055 -0.137135
vn 0.767018 -0.573300 -0.288114
vn 0.749358 -0.552645 -0.364756
vn 0.669344 -0.558405 -0.490063
vn 0.491060 0.043059 -0.870061
vn 0.121595 0.646407 -0.753241
vn -0.075800 0.724466 -0.685131
vn -0.142977 0.638359 -0.756343
vn -0.074104 0.514124 -0.854509
vn -0.279718 0.630664 -0.723892
vn -0.718979 0.549878 -0.425092
vn -0.952516 0.112431 -0.282970
vn -0.946613 -0.224429 -0.231421
vn -0.538589 -0.550201 0.638124
vn -0.124119 -0.746231 0.654014
vn 0.243946 -0.764395 0.596818
vn 0.489463 -0.769386 0.410452
vn 0.653913 -0.746742 0.121548
vn 0.698318 -0.707307 -0.109858
vn 0.707935 -0.601330 -0.370446
vn 0.788037 -0.055659 -0.613106
vn 0.433084 0.692401 -0.577078
vn -0.177198 0.899802 -0.398694
vn -0.290352 0.941396 -0.171666
vn -0.270725 0.953660 -0.131301
vn -0.541295 0.808703 -0.230217
vn -0.850137 0.521945 0.069578
vn -0.942118 0.084105 0.324560
vn -0.864453 -0.218230 0.452876
vn -0.469502 -0.498157 0.728977
vn 0.119619 -0.818443 0.561999
vn 0.272181 -0.686391 0.674378
vn 0.120129 -0.577458 0.807534
vn 0.322975 -0.683482 0.654629
vn 0.503483 -0.755321 0.419518
vn 0.626781 -0.743140 0.234283
vn 0.903614 -0.427781 0.022047
vn 0.687159 0.726351 -0.015018
vn -0.323013 0.941994 0.091156
vn -0.310157 0.899806 0.306843
vn -0.182330 0.932890 0.310598
vn -0.558682 0.796295 0.231922
vn -0.870416 0.362155 0.333495
vn -0.811882 0.005528 0.583796
vn -0.736207 -0.101827 0.669052
vn -0.461556 -0.450637 0.764128
vn 0.116016 -0.744661 0.657283
vn 0.344879 -0.684737 0.642023
vn 0.049505 -0.487368 0.871792
vn 0.017201 -0.460285 0.887605
vn -0.617177 -0.161552 0.770061
vn -0.097753 -0.475053 0.874511
vn 0.257228 -0.624161 0.737737
vn 0.160922 -0.595298 0.787226
vn 0.273604 -0.643290 0.715065
vn -0.628520 -0.041690 0.776676
vn -0.184396 -0.121420 0.975323
vn 0.044379 -0.400765 0.915105
vn 0.082938 -0.600321 0.795447
vn 0.363844 -0.668673 0.648455
vn -0.626266 0.345688 0.698777
vn -0.184956 0.308830 0.932961
vn -0.181287 0.128311 0.975024
vn -0.156382 -0.028427 0.987287
vn 0.393681 -0.398878 0.828198
vn -0.395985 0.733759 0.552082
vn -0.142763 0.742709 0.654218
vn -0.275224 0.664128 0.695116
vn -0.311909 0.686454 0.656882
vn 0.131282 0.441236 0.887736
vt 0.252475 0.995049
vt 0.252475 0.995049
vt 0.004950 0.995049
vt 0.004950 0.995049
vt 0.500000 0.995049
vt 0.500000 0.995049
vt 0.747525 0.995049
vt 0.747525 0.995049
vt 0.995049 0.995049
vt 0.995049 0.995049
vt 0.252475 0.995049
vt 0.004950 0.995049
vt 0.500000 0.995049
vt 0.747525 0.995049
vt 0.995049 0.995049
vt 0.252475 0.995049
vt 0.004950 0.995049
vt 0.500000 0.995049
vt 0.747525 0.995049
vt 0.995049 0.995049
vt 0.252475 0.995049
vt 0.004950 0.995049
vt 0.500000 0.995049
vt 0.747525 0.995049
vt 0.995049 0.995049
vt 0.252475 0.747525
vt 0.004950 0.747525
vt 0.500000 0.747525
vt 0.747525 0.747525
vt 0.995049 0.747525
vt 0.995049 0.747525
vt 0.995049 0.747525
vt 0.995049 0.747525
vt 0.995049 0.747525
vt 0.747525 0.747525
vt 0.500000 0.747525
vt 0.252475 0.747525
vt 0.004950 0.747525
vt 0.004950 0.747525
vt 0.004950 0.747525
vt 0.004950 0.747525
vt 0.252475 0.500000
vt 0.004950 0.500000
vt 0.500000 0.500000
vt 0.747525 0.500000
vt 0.995049 0.500000
vt 0.995049 0.500000
vt 0.995049 0.500000
vt 0.995049 0.500000
vt 0.995049 0.500000
vt 0.747525 0.500000
vt 0.500000 0.500000
vt 0.252475 0.500000
vt 0.004950 0.500000
vt 0.004950 0.500000
vt 0.004950 0.500000
vt 0.004950 0.500000
vt 0.252475 0.252475
vt 0.004950 0.252475
vt 0.500000 0.252475
vt 0.747525 0.252475
vt 0.995049 0.252475
vt 0.995049 0.252475
vt 0.995049 0.252475
vt 0.995049 0.252475
vt 0.995049 0.252475
vt 0.747525 0.252475
vt 0.500000 0.252475
vt 0.252475 0.252475
vt 0.004950 0.252475
vt 0.004950 0.252475
vt 0.004950 0.252475
vt 0.004950 0.252475
vt 0.252475 0.004950
vt 0.252475 0.004950
vt 0.004950 0.004950
vt 0.004950 0.004950
vt 0.500000 0.004950
vt 0.500000 0.004950
vt 0.747525 0.004950
vt 0.747525 0.004950
vt 0.995049 0.004950
vt 0.995049 0.004950
vt 0.252475 0.004950
vt 0.004950 0.004950
vt 0.500000 0.004950
vt 0.747525 0.004950
vt 0.995049 0.004950
vt 0.252475 0.004950
vt 0.004950 0.004950
vt 0.500000 0.004950
vt 0.747525 0.004950
vt 0.995049 0.004950
vt 0.252475 0.004950
vt 0.004950 0.004950
vt 0.500000 0.004950
vt 0.747525 0.004950
vt 0.995049 0.004950
g pointy rock1
usemtl Material1
f 7/1/7 2/2/2 1/3/1 6/4/6 
f 8/5/8 3/6/3 2/2/2 7/1/7 
f 9/7/9 4/8/4 3/6/3 8/5/8 
f 10/9/10 5/10/5 4/8/4 9/7/9 
f 12/11/12 7/1/7 6/4/6 11/12/11 
f 13/13/13 8/5/8 7/1/7 12/11/12 
f 14/14/14 9/7/9 8/5/8 13/13/13 
f 15/15/15 10/9/10 9/7/9 14/14/14 
f 17/16/17 12/11/12 11/12/11 16/17/16 
f 18/18/18 13/13/13 12/11/12 17/16/17 
f 19/19/19 14/14/14 13/13/13 18/18/18 
f 20/20/20 15/15/15 14/14/14 19/19/19 
f 22/21/22 17/16/17 16/17/16 21/22/21 
f 23/23/23 18/18/18 17/16/17 22/21/22 
f 24/24/24 19/19/19 18/18/18 23/23/23 
f 25/25/25 20/20/20 19/19/19 24/24/24 
f 27/26/27 26/27/26 1/3/1 2/2/2 
f 28/28/28 27/26/27 2/2/2 3/6/3 
f 29/29/29 28/28/28 3/6/3 4/8/4 
f 30/30/30 29/29/29 4/8/4 5/10/5 
f 31/31/31 30/30/30 5/10/5 10/9/10 
f 32/32/32 31/31/31 10/9/10 15/15/15 
f 33/33/33 32/32/32 15/15/15 20/20/20 
f 34/34/34 33/33/33 20/20/20 25/25/25 
f 35/35/35 34/34/34 25/25/25 24/24/24 
f 36/36/36 35/35/35 24/24/24 23/23/23 
f 37/37/37 36/36/36 23/23/23 22/21/22 
f 38/38/38 37/37/37 22/21/22 21/22/21 
f 39/39/39 38/38/38 21/22/21 16/17/16 
f 40/40/40 39/39/39 16/17/16 11/12/11 
f 41/41/41 40/40/40 11/12/11 6/4/6 
f 26/27/26 41/41/41 6/4/6 1/3/1 
f 43/42/43 42/43/42 26/27/26 27/26/27 
f 44/44/44 43/42/43 27/26/27 28/28/28 
f 45/45/45 44/44/44 28/28/28 29/29/29 
f 46/46/46 45/45/45 29/29/29 30/30/30 
f 47/47/47 46/46/46 30/30/30 31/31/31 
f 48/48/48 47/47/47 31/31/31 32/32/32 
f 49/49/49 48/48/48 32/32/32 33/33/33 
f 50/50/50 49/49/49 33/33/33 34/34/34 
f 51/51/51 50/50/50 34/34/34 35/35/35 
f 52/52/52 51/51/51 35/35/35 36/36/36 
f 53/53/53 52/52/52 36/36/36 37/37/37 
f 54/54/54 53/53/53 37/37/37 38/38/38 
f 55/55/55 54/54/54 38/38/38 39/39/39 
f 56/56/56 55/55/55 39/39/39 40/40/40 
f 57/57/57 56/56/56 40/40/40 41/41/41 
f 42/43/42 57/57/57 41/41/41 26/27/26 
f 59/58/59 58/59/58 42/43/42 43/42/43 
f 60/60/60 59/58/59 43/42/43 44/44/44 
f 61/61/61 60/60/60 44/44/44 45/45/45 
f 62/62/62 61/61/61 45/45/45 46/46/46 
f 63/63/63 62/62/62 46/46/46 47/47/47 
f 64/64/64 63/63/63 47/47/47 48/48/48 
f 65/65/65 64/64/64 48/48/48 49/49/49 
f 66/66/66 65/65/65 49/49/49 50/50/50 
f 67/67/67 66/66/66 50/50/50 51/51/51 
f 68/68/68 67/67/67 51/51/51 52/52/52 
f 69/69/69 68/68/68 52/52/52 53/53/53 
f 70/70/70 69/69/69 53/53/53 54/54/54 
f 71/71/71 70/70/70 54/54/54 55/55/55 
f 72/72/72 71/71/71 55/55/55 56/56/56 
f 73/73/73 72/72/72 56/56/56 57/57/57 
f 58/59/58 73/73/73 57/57/57 42/43/42 
f 75/74/75 80/75/80 79/76/79 74/77/74 
f 76/78/76 81/79/81 80/75/80 75/74/75 
f 77/80/77 82/81/82 81/79/81 76/78/76 
f 78/82/78 83/83/83 82/81/82 77/80/77 
f 80/75/80 85/84/85 84/85/84 79/76/79 
f 81/79/81 86/86/86 85/84/85 80/75/80 
f 82/81/82 87/87/87 86/86/86 81/79/81 
f 83/83/83 88/88/88 87/87/87 82/81/82 
f 85/84/85 90/89/90 89/90/89 84/85/84 
f 86/86/86 91/91/91 90/89/90 85/84/85 
f 87/87/87 92/92/92 91/91/91 86/86/86 
f 88/88/88 93/93/93 92/92/92 87/87/87 
f 90/89/90 95/94/95 94/95/94 89/90/89 
f 91/91/91 96/96/96 95/94/95 90/89/90 
f 92/92/92 97/97/97 96/96/96 91/91/91 
f 93/93/93 98/98/98 97/97/97 92/92/92 
f 75/74/75 74/77/74 58/59/58 59/58/59 
f 76/78/76 75/74/75 59/58/59 60/60/60 
f 77/80/77 76/78/76 60/60/60 61/61/61 
f 78/82/78 77/80/77 61/61/61 62/62/62 
f 83/83/83 78/82/78 62/62/62 63/63/63 
f 88/88/88 83/83/83 63/63/63 64/64/64 
f 93/93/93 88/88/88 64/64/64 65/65/65 
f 98/98/98 93/93/93 65/65/65 66/66/66 
f 97/97/97 98/98/98 66/66/66 67/67/67 
f 96/96/96 97/97/97 67/67/67 68/68/68 
f 95/94/95 96/96/96 68/68/68 69/69/69 
f 94/95/94 95/94/95 69/69/69 70/70/70 
f 89/90/89 94/95/94 70/70/70 71/71/71 
f 84/85/84 89/90/89 71/71/71 72/72/72 
f 79/76/79 84/85/84 72/72/72 73/73/73 
f 74/77/74 79/76/79 73/73/73 58/59/58 
